<svg width="60" height="49" viewBox="0 0 60 49" fill="none" xmlns="http://www.w3.org/2000/svg">
<g clip-path="url(#clip0_4_42)">
<path d="M12 42.5C12 44.0913 12.6321 45.6174 13.7574 46.7426C14.8826 47.8679 16.4087 48.5 18 48.5H54C55.5913 48.5 57.1174 47.8679 58.2426 46.7426C59.3679 45.6174 60 44.0913 60 42.5V6.5C60 4.9087 59.3679 3.38258 58.2426 2.25736C57.1174 1.13214 55.5913 0.5 54 0.5L18 0.5C16.4087 0.5 14.8826 1.13214 13.7574 2.25736C12.6321 3.38258 12 4.9087 12 6.5L12 42.5ZM25.5 23H42.879L36.438 16.562C36.1563 16.2803 35.9981 15.8983 35.9981 15.5C35.9981 15.1017 36.1563 14.7197 36.438 14.438C36.7197 14.1563 37.1017 13.9981 37.5 13.9981C37.8983 13.9981 38.2803 14.1563 38.562 14.438L47.562 23.438C47.7017 23.5773 47.8125 23.7429 47.8881 23.9251C47.9638 24.1073 48.0027 24.3027 48.0027 24.5C48.0027 24.6973 47.9638 24.8927 47.8881 25.0749C47.8125 25.2571 47.7017 25.4227 47.562 25.562L38.562 34.562C38.2803 34.8437 37.8983 35.0019 37.5 35.0019C37.1017 35.0019 36.7197 34.8437 36.438 34.562C36.1563 34.2803 35.9981 33.8983 35.9981 33.5C35.9981 33.1017 36.1563 32.7197 36.438 32.438L42.879 26H25.5C25.1022 26 24.7206 25.842 24.4393 25.5607C24.158 25.2794 24 24.8978 24 24.5C24 24.1022 24.158 23.7206 24.4393 23.4393C24.7206 23.158 25.1022 23 25.5 23V23Z" fill="white"/>
</g>
<defs>
<clipPath id="clip0_4_42">
<rect width="60" height="48" fill="white" transform="translate(0 0.5)"/>
</clipPath>
</defs>
</svg>
